<mxfile host="app.diagrams.net" agent="Mozilla/5.0 (Windows NT 10.0; Win64; x64) AppleWebKit/537.36 (KHTML, like Gecko) Chrome/139.0.0.0 Safari/537.36" version="28.1.0">
  <diagram name="Página-1" id="nfqdpCrkUzHxg-remrFh">
    <mxGraphModel dx="2864" dy="1073" grid="1" gridSize="5" guides="1" tooltips="1" connect="1" arrows="1" fold="1" page="1" pageScale="1" pageWidth="827" pageHeight="1169" math="0" shadow="0">
      <root>
        <mxCell id="0" />
        <mxCell id="1" parent="0" />
        <mxCell id="gKBEIbaFbegW2FiuubBc-5" value="" style="edgeStyle=orthogonalEdgeStyle;rounded=0;orthogonalLoop=1;jettySize=auto;html=1;" parent="1" source="gKBEIbaFbegW2FiuubBc-1" target="gKBEIbaFbegW2FiuubBc-4" edge="1">
          <mxGeometry relative="1" as="geometry" />
        </mxCell>
        <mxCell id="gKBEIbaFbegW2FiuubBc-1" value="&lt;div&gt;&lt;font style=&quot;font-size: 18px;&quot;&gt;&lt;b&gt;Optimización y reconfiguración proactiva en&amp;nbsp;&lt;span style=&quot;background-color: transparent; color: light-dark(rgb(0, 0, 0), rgb(255, 255, 255));&quot;&gt;entornos densos y heterogéneos&lt;/span&gt;&lt;/b&gt;&lt;/font&gt;&lt;/div&gt;" style="rounded=1;whiteSpace=wrap;html=1;" parent="1" vertex="1">
          <mxGeometry x="-370" y="35" width="735" height="40" as="geometry" />
        </mxCell>
        <mxCell id="giAp-adKMRdQ-1lFR8J4-9" value="" style="edgeStyle=orthogonalEdgeStyle;rounded=0;orthogonalLoop=1;jettySize=auto;html=1;" edge="1" parent="1" source="gKBEIbaFbegW2FiuubBc-4" target="giAp-adKMRdQ-1lFR8J4-8">
          <mxGeometry relative="1" as="geometry" />
        </mxCell>
        <mxCell id="giAp-adKMRdQ-1lFR8J4-11" value="" style="edgeStyle=orthogonalEdgeStyle;rounded=0;orthogonalLoop=1;jettySize=auto;html=1;" edge="1" parent="1" source="gKBEIbaFbegW2FiuubBc-4" target="giAp-adKMRdQ-1lFR8J4-10">
          <mxGeometry relative="1" as="geometry">
            <Array as="points">
              <mxPoint x="-287" y="230" />
              <mxPoint x="-565" y="230" />
            </Array>
          </mxGeometry>
        </mxCell>
        <mxCell id="giAp-adKMRdQ-1lFR8J4-14" value="" style="edgeStyle=orthogonalEdgeStyle;rounded=0;orthogonalLoop=1;jettySize=auto;html=1;" edge="1" parent="1" source="gKBEIbaFbegW2FiuubBc-4" target="giAp-adKMRdQ-1lFR8J4-13">
          <mxGeometry relative="1" as="geometry" />
        </mxCell>
        <mxCell id="gKBEIbaFbegW2FiuubBc-4" value="&lt;font style=&quot;font-size: 16px;&quot;&gt;Enfoques basados en AI&lt;/font&gt;" style="shape=hexagon;perimeter=hexagonPerimeter2;whiteSpace=wrap;html=1;fixedSize=1;rounded=1;" parent="1" vertex="1">
          <mxGeometry x="-410" y="115" width="245" height="80" as="geometry" />
        </mxCell>
        <mxCell id="gKBEIbaFbegW2FiuubBc-18" value="" style="shape=umlActor;verticalLabelPosition=bottom;verticalAlign=top;html=1;outlineConnect=0;" parent="1" vertex="1">
          <mxGeometry x="-480" y="665" width="30" height="60" as="geometry" />
        </mxCell>
        <mxCell id="gKBEIbaFbegW2FiuubBc-19" value="&lt;font style=&quot;font-size: 14px;&quot;&gt;En la literatura existen más modelos,&amp;nbsp;&lt;span style=&quot;background-color: transparent; color: light-dark(rgb(0, 0, 0), rgb(255, 255, 255));&quot;&gt;pero era necesario acotarlo en algún punto :)&lt;/span&gt;&lt;/font&gt;" style="shape=callout;whiteSpace=wrap;html=1;perimeter=calloutPerimeter;position2=0.79;" parent="1" vertex="1">
          <mxGeometry x="-620" y="530" width="155" height="135" as="geometry" />
        </mxCell>
        <mxCell id="gKBEIbaFbegW2FiuubBc-22" value="" style="strokeWidth=2;html=1;shape=mxgraph.flowchart.annotation_2;align=left;labelPosition=right;pointerEvents=1;rotation=-90;" parent="1" vertex="1">
          <mxGeometry x="-25" y="-160" width="50" height="1280" as="geometry" />
        </mxCell>
        <mxCell id="gKBEIbaFbegW2FiuubBc-28" value="" style="edgeStyle=orthogonalEdgeStyle;rounded=0;orthogonalLoop=1;jettySize=auto;html=1;" parent="1" source="gKBEIbaFbegW2FiuubBc-26" target="gKBEIbaFbegW2FiuubBc-27" edge="1">
          <mxGeometry relative="1" as="geometry">
            <Array as="points">
              <mxPoint x="-2.5" y="615" />
              <mxPoint x="-314.5" y="615" />
            </Array>
          </mxGeometry>
        </mxCell>
        <mxCell id="gKBEIbaFbegW2FiuubBc-26" value="&lt;font style=&quot;font-size: 17px;&quot;&gt;La elección dependerá de&amp;nbsp;&lt;/font&gt;&lt;div&gt;&lt;font style=&quot;font-size: 17px;&quot;&gt;una serie de criterios operativos&lt;/font&gt;&lt;/div&gt;" style="shape=hexagon;perimeter=hexagonPerimeter2;whiteSpace=wrap;html=1;fixedSize=1;" parent="1" vertex="1">
          <mxGeometry x="-140" y="505" width="275" height="80" as="geometry" />
        </mxCell>
        <mxCell id="gKBEIbaFbegW2FiuubBc-27" value="&lt;font style=&quot;font-size: 16px;&quot;&gt;Centralización&lt;/font&gt;&lt;div&gt;&lt;font style=&quot;font-size: 16px;&quot;&gt;&amp;nbsp;vs&lt;/font&gt;&lt;/div&gt;&lt;div&gt;&lt;font style=&quot;font-size: 16px;&quot;&gt;&amp;nbsp;Distribución&lt;/font&gt;&lt;/div&gt;" style="ellipse;whiteSpace=wrap;html=1;" parent="1" vertex="1">
          <mxGeometry x="-387.5" y="645" width="145" height="80" as="geometry" />
        </mxCell>
        <mxCell id="gKBEIbaFbegW2FiuubBc-29" value="&lt;font style=&quot;font-size: 16px;&quot;&gt;Requisitos&lt;/font&gt;&lt;div&gt;&lt;font style=&quot;font-size: 16px;&quot;&gt;&amp;nbsp;de tiempo real&lt;/font&gt;&lt;/div&gt;" style="ellipse;whiteSpace=wrap;html=1;" parent="1" vertex="1">
          <mxGeometry x="-177.5" y="645" width="145" height="80" as="geometry" />
        </mxCell>
        <mxCell id="gKBEIbaFbegW2FiuubBc-30" value="" style="edgeStyle=orthogonalEdgeStyle;rounded=0;orthogonalLoop=1;jettySize=auto;html=1;exitX=0.5;exitY=1;exitDx=0;exitDy=0;entryX=0.5;entryY=0;entryDx=0;entryDy=0;" parent="1" source="gKBEIbaFbegW2FiuubBc-26" target="gKBEIbaFbegW2FiuubBc-29" edge="1">
          <mxGeometry relative="1" as="geometry">
            <mxPoint x="114.5" y="620" as="sourcePoint" />
            <mxPoint x="-37.5" y="690" as="targetPoint" />
          </mxGeometry>
        </mxCell>
        <mxCell id="giAp-adKMRdQ-1lFR8J4-6" value="" style="edgeStyle=orthogonalEdgeStyle;rounded=0;orthogonalLoop=1;jettySize=auto;html=1;" edge="1" parent="1" source="giAp-adKMRdQ-1lFR8J4-1" target="giAp-adKMRdQ-1lFR8J4-5">
          <mxGeometry relative="1" as="geometry" />
        </mxCell>
        <mxCell id="giAp-adKMRdQ-1lFR8J4-1" value="&lt;font style=&quot;font-size: 16px;&quot;&gt;Enfoques basados en&amp;nbsp;&lt;/font&gt;&lt;div&gt;&lt;font style=&quot;font-size: 16px;&quot;&gt;optimización matemática&amp;nbsp;&lt;/font&gt;&lt;/div&gt;&lt;div&gt;&lt;font style=&quot;font-size: 16px;&quot;&gt;&lt;span style=&quot;background-color: transparent; color: light-dark(rgb(0, 0, 0), rgb(255, 255, 255));&quot;&gt;(&lt;/span&gt;&lt;span style=&quot;background-color: transparent; color: light-dark(rgb(0, 0, 0), rgb(255, 255, 255));&quot;&gt;LP/MILP,&lt;/span&gt;&lt;span style=&quot;background-color: transparent; color: light-dark(rgb(0, 0, 0), rgb(255, 255, 255));&quot;&gt;&amp;nbsp;MINLP&lt;/span&gt;&lt;span style=&quot;background-color: transparent; color: light-dark(rgb(0, 0, 0), rgb(255, 255, 255));&quot;&gt;)&lt;/span&gt;&lt;/font&gt;&lt;/div&gt;" style="shape=hexagon;perimeter=hexagonPerimeter2;whiteSpace=wrap;html=1;fixedSize=1;rounded=1;" vertex="1" parent="1">
          <mxGeometry x="-125" y="115" width="245" height="80" as="geometry" />
        </mxCell>
        <mxCell id="giAp-adKMRdQ-1lFR8J4-22" value="" style="edgeStyle=orthogonalEdgeStyle;rounded=0;orthogonalLoop=1;jettySize=auto;html=1;" edge="1" parent="1" source="giAp-adKMRdQ-1lFR8J4-2" target="giAp-adKMRdQ-1lFR8J4-21">
          <mxGeometry relative="1" as="geometry" />
        </mxCell>
        <mxCell id="giAp-adKMRdQ-1lFR8J4-24" value="" style="edgeStyle=orthogonalEdgeStyle;rounded=0;orthogonalLoop=1;jettySize=auto;html=1;exitX=0.5;exitY=1;exitDx=0;exitDy=0;" edge="1" parent="1" source="giAp-adKMRdQ-1lFR8J4-2" target="giAp-adKMRdQ-1lFR8J4-23">
          <mxGeometry relative="1" as="geometry">
            <Array as="points">
              <mxPoint x="277" y="230" />
              <mxPoint x="565" y="230" />
            </Array>
          </mxGeometry>
        </mxCell>
        <mxCell id="giAp-adKMRdQ-1lFR8J4-27" value="" style="edgeStyle=orthogonalEdgeStyle;rounded=0;orthogonalLoop=1;jettySize=auto;html=1;" edge="1" parent="1" source="giAp-adKMRdQ-1lFR8J4-2" target="giAp-adKMRdQ-1lFR8J4-26">
          <mxGeometry relative="1" as="geometry" />
        </mxCell>
        <mxCell id="giAp-adKMRdQ-1lFR8J4-2" value="&lt;font style=&quot;font-size: 16px;&quot;&gt;Enfoques en algoritmos&lt;/font&gt;&lt;div&gt;&lt;font style=&quot;font-size: 16px;&quot;&gt;&amp;nbsp;heurísticos y metaheurísticos&lt;/font&gt;&lt;/div&gt;" style="shape=hexagon;perimeter=hexagonPerimeter2;whiteSpace=wrap;html=1;fixedSize=1;rounded=1;" vertex="1" parent="1">
          <mxGeometry x="155" y="115" width="245" height="80" as="geometry" />
        </mxCell>
        <mxCell id="giAp-adKMRdQ-1lFR8J4-3" value="" style="edgeStyle=orthogonalEdgeStyle;rounded=0;orthogonalLoop=1;jettySize=auto;html=1;exitX=0.5;exitY=1;exitDx=0;exitDy=0;entryX=0.5;entryY=0;entryDx=0;entryDy=0;" edge="1" parent="1" source="gKBEIbaFbegW2FiuubBc-1" target="giAp-adKMRdQ-1lFR8J4-1">
          <mxGeometry relative="1" as="geometry">
            <mxPoint x="241" y="100" as="sourcePoint" />
            <mxPoint x="-55" y="140" as="targetPoint" />
          </mxGeometry>
        </mxCell>
        <mxCell id="giAp-adKMRdQ-1lFR8J4-4" value="" style="edgeStyle=orthogonalEdgeStyle;rounded=0;orthogonalLoop=1;jettySize=auto;html=1;exitX=0.5;exitY=1;exitDx=0;exitDy=0;entryX=0.5;entryY=0;entryDx=0;entryDy=0;" edge="1" parent="1" source="gKBEIbaFbegW2FiuubBc-1" target="giAp-adKMRdQ-1lFR8J4-2">
          <mxGeometry relative="1" as="geometry">
            <mxPoint x="100" y="85" as="sourcePoint" />
            <mxPoint x="100" y="125" as="targetPoint" />
          </mxGeometry>
        </mxCell>
        <mxCell id="giAp-adKMRdQ-1lFR8J4-5" value="&lt;font style=&quot;font-size: 15px;&quot;&gt;Solvers (CPLEX, Gurobi) junto a&amp;nbsp;&lt;/font&gt;&lt;div&gt;&lt;font style=&quot;font-size: 15px;&quot;&gt;técnicas de descomposición&amp;nbsp;&lt;/font&gt;&lt;div&gt;&lt;font style=&quot;font-size: 15px;&quot;&gt;(dual-descop., ADMM)&lt;/font&gt;&lt;/div&gt;&lt;/div&gt;" style="whiteSpace=wrap;html=1;rounded=1;" vertex="1" parent="1">
          <mxGeometry x="-122.5" y="265" width="240" height="60" as="geometry" />
        </mxCell>
        <mxCell id="giAp-adKMRdQ-1lFR8J4-18" value="" style="edgeStyle=orthogonalEdgeStyle;rounded=0;orthogonalLoop=1;jettySize=auto;html=1;exitX=0.5;exitY=1;exitDx=0;exitDy=0;" edge="1" parent="1" source="giAp-adKMRdQ-1lFR8J4-8" target="giAp-adKMRdQ-1lFR8J4-17">
          <mxGeometry relative="1" as="geometry">
            <mxPoint x="-170" y="330.0000000000001" as="sourcePoint" />
            <Array as="points">
              <mxPoint x="-225" y="345" />
              <mxPoint x="-225" y="345" />
            </Array>
          </mxGeometry>
        </mxCell>
        <mxCell id="giAp-adKMRdQ-1lFR8J4-8" value="&lt;font style=&quot;font-size: 15px;&quot;&gt;ML&lt;/font&gt;" style="whiteSpace=wrap;html=1;rounded=1;" vertex="1" parent="1">
          <mxGeometry x="-285" y="265" width="120" height="60" as="geometry" />
        </mxCell>
        <mxCell id="giAp-adKMRdQ-1lFR8J4-10" value="&lt;font style=&quot;font-size: 15px;&quot;&gt;DL&lt;/font&gt;&lt;div&gt;&lt;font style=&quot;font-size: 15px;&quot;&gt;(CNN,RNN, etc.)&lt;/font&gt;&lt;/div&gt;" style="whiteSpace=wrap;html=1;rounded=1;" vertex="1" parent="1">
          <mxGeometry x="-625" y="265" width="120" height="60" as="geometry" />
        </mxCell>
        <mxCell id="giAp-adKMRdQ-1lFR8J4-13" value="&lt;font style=&quot;font-size: 15px;&quot;&gt;RL&lt;/font&gt;" style="whiteSpace=wrap;html=1;rounded=1;" vertex="1" parent="1">
          <mxGeometry x="-455" y="265" width="120" height="60" as="geometry" />
        </mxCell>
        <mxCell id="giAp-adKMRdQ-1lFR8J4-15" value="&lt;font style=&quot;font-size: 14px;&quot;&gt;Aprendizaje supervisado&lt;/font&gt;&lt;div&gt;&lt;font style=&quot;font-size: 14px;&quot;&gt;(SVM, RF, etc.)&lt;/font&gt;&lt;/div&gt;" style="whiteSpace=wrap;html=1;rounded=1;" vertex="1" parent="1">
          <mxGeometry x="-425" y="395" width="120" height="60" as="geometry" />
        </mxCell>
        <mxCell id="giAp-adKMRdQ-1lFR8J4-17" value="&lt;font style=&quot;font-size: 14px;&quot;&gt;Aprendizaje no supervisado&lt;/font&gt;&lt;div&gt;&lt;font style=&quot;font-size: 14px;&quot;&gt;(clustering, etc.)&lt;/font&gt;&lt;/div&gt;" style="whiteSpace=wrap;html=1;rounded=1;" vertex="1" parent="1">
          <mxGeometry x="-285" y="395" width="120" height="60" as="geometry" />
        </mxCell>
        <mxCell id="giAp-adKMRdQ-1lFR8J4-19" value="&lt;font style=&quot;font-size: 14px;&quot;&gt;Aprendizaje por refuerzo&lt;/font&gt;&lt;div&gt;&lt;font style=&quot;font-size: 14px;&quot;&gt;(Q-learing, etc.)&lt;/font&gt;&lt;/div&gt;" style="whiteSpace=wrap;html=1;rounded=1;" vertex="1" parent="1">
          <mxGeometry x="-145" y="395" width="120" height="60" as="geometry" />
        </mxCell>
        <mxCell id="giAp-adKMRdQ-1lFR8J4-21" value="&lt;font style=&quot;font-size: 15px;&quot;&gt;Busqueda local (temple simulado, etc.)&lt;/font&gt;" style="whiteSpace=wrap;html=1;rounded=1;" vertex="1" parent="1">
          <mxGeometry x="335" y="265" width="120" height="60" as="geometry" />
        </mxCell>
        <mxCell id="giAp-adKMRdQ-1lFR8J4-23" value="&lt;font style=&quot;font-size: 15px;&quot;&gt;Evolutivos (GA)&lt;/font&gt;" style="whiteSpace=wrap;html=1;rounded=1;" vertex="1" parent="1">
          <mxGeometry x="505" y="265" width="120" height="60" as="geometry" />
        </mxCell>
        <mxCell id="giAp-adKMRdQ-1lFR8J4-26" value="&lt;font style=&quot;font-size: 15px;&quot;&gt;Bioinspirados&lt;/font&gt;&lt;div&gt;&lt;font style=&quot;font-size: 15px;&quot;&gt;(PSO, ACO,&lt;/font&gt;&lt;/div&gt;&lt;div&gt;&lt;font style=&quot;font-size: 15px;&quot;&gt;&amp;nbsp;CRO, etc.)&lt;/font&gt;&lt;/div&gt;" style="whiteSpace=wrap;html=1;rounded=1;" vertex="1" parent="1">
          <mxGeometry x="165" y="265" width="120" height="60" as="geometry" />
        </mxCell>
        <mxCell id="giAp-adKMRdQ-1lFR8J4-28" value="" style="edgeStyle=orthogonalEdgeStyle;rounded=0;orthogonalLoop=1;jettySize=auto;html=1;exitX=0.5;exitY=1;exitDx=0;exitDy=0;entryX=0.5;entryY=0;entryDx=0;entryDy=0;" edge="1" parent="1" source="giAp-adKMRdQ-1lFR8J4-8" target="giAp-adKMRdQ-1lFR8J4-19">
          <mxGeometry relative="1" as="geometry">
            <mxPoint x="-190" y="345" as="sourcePoint" />
            <mxPoint x="-190" y="415" as="targetPoint" />
            <Array as="points">
              <mxPoint x="-225" y="360" />
              <mxPoint x="-85" y="360" />
            </Array>
          </mxGeometry>
        </mxCell>
        <mxCell id="giAp-adKMRdQ-1lFR8J4-30" value="" style="endArrow=classic;html=1;rounded=0;exitX=0.5;exitY=1;exitDx=0;exitDy=0;entryX=0.5;entryY=0;entryDx=0;entryDy=0;" edge="1" parent="1" source="giAp-adKMRdQ-1lFR8J4-8" target="giAp-adKMRdQ-1lFR8J4-15">
          <mxGeometry width="50" height="50" relative="1" as="geometry">
            <mxPoint x="-145" y="285" as="sourcePoint" />
            <mxPoint x="-95" y="235" as="targetPoint" />
            <Array as="points">
              <mxPoint x="-225" y="360" />
              <mxPoint x="-365" y="360" />
            </Array>
          </mxGeometry>
        </mxCell>
        <mxCell id="giAp-adKMRdQ-1lFR8J4-31" value="&lt;font style=&quot;font-size: 15px;&quot;&gt;Disponibilidad y&amp;nbsp;&lt;/font&gt;&lt;div&gt;&lt;font style=&quot;font-size: 15px;&quot;&gt;calidad de los datos&lt;/font&gt;&lt;/div&gt;" style="ellipse;whiteSpace=wrap;html=1;" vertex="1" parent="1">
          <mxGeometry x="32.5" y="645" width="145" height="80" as="geometry" />
        </mxCell>
        <mxCell id="giAp-adKMRdQ-1lFR8J4-33" value="&lt;font style=&quot;font-size: 16px;&quot;&gt;Interpretabilidad&lt;/font&gt;" style="ellipse;whiteSpace=wrap;html=1;" vertex="1" parent="1">
          <mxGeometry x="242.5" y="645" width="145" height="80" as="geometry" />
        </mxCell>
        <mxCell id="giAp-adKMRdQ-1lFR8J4-34" value="" style="edgeStyle=orthogonalEdgeStyle;rounded=0;orthogonalLoop=1;jettySize=auto;html=1;exitX=0.5;exitY=1;exitDx=0;exitDy=0;entryX=0.5;entryY=0;entryDx=0;entryDy=0;" edge="1" parent="1" source="gKBEIbaFbegW2FiuubBc-26" target="giAp-adKMRdQ-1lFR8J4-31">
          <mxGeometry relative="1" as="geometry">
            <mxPoint x="209.5" y="615" as="sourcePoint" />
            <mxPoint x="-102.5" y="680" as="targetPoint" />
            <Array as="points">
              <mxPoint x="-2.5" y="615" />
              <mxPoint x="105.5" y="615" />
            </Array>
          </mxGeometry>
        </mxCell>
        <mxCell id="giAp-adKMRdQ-1lFR8J4-36" value="" style="edgeStyle=orthogonalEdgeStyle;rounded=0;orthogonalLoop=1;jettySize=auto;html=1;exitX=0.5;exitY=1;exitDx=0;exitDy=0;entryX=0.5;entryY=0;entryDx=0;entryDy=0;" edge="1" parent="1" source="gKBEIbaFbegW2FiuubBc-26">
          <mxGeometry relative="1" as="geometry">
            <mxPoint x="207.5" y="585" as="sourcePoint" />
            <mxPoint x="315.5" y="645" as="targetPoint" />
            <Array as="points">
              <mxPoint x="-2.5" y="615" />
              <mxPoint x="315.5" y="615" />
            </Array>
          </mxGeometry>
        </mxCell>
      </root>
    </mxGraphModel>
  </diagram>
</mxfile>
